<mxfile host="app.diagrams.net" modified="2023-09-08T11:03:07.618Z" agent="Mozilla/5.0 (Macintosh; Intel Mac OS X 10_15_7) AppleWebKit/605.1.15 (KHTML, like Gecko) Version/16.1 Safari/605.1.15" version="21.7.2" etag="WDfmg8pmOoK356geudkr" type="github">
  <diagram name="第 1 页" id="cVxjgGh5t3ALijYdXdUo">
    <mxGraphModel>
      <root>
        <mxCell id="0" />
        <mxCell id="1" parent="0" />
      </root>
    </mxGraphModel>
  </diagram>
</mxfile>
